<?xml version="1.0" encoding="UTF-8" standalone="no"?>
<!-- Created with Inkscape (http://www.inkscape.org/) -->

<svg
   version="1.1"
   id="svg132"
   width="64.333"
   height="64.333"
   viewBox="0 0 64.333 64.333"
   xmlns="http://www.w3.org/2000/svg"
   xmlns:svg="http://www.w3.org/2000/svg">
  <defs
     id="defs136" />
  <g
     id="g138">
    <g
       id="g854"
       style="fill:#ffffff"
       transform="translate(45.296224,-7.9734926)">
      <path
         style="fill:#ffffff;fill-opacity:1;stroke-width:1.33333"
         d="m -22.638833,65.778971 c -10.401169,-3.679324 -17.973434,-15.211267 -17.992565,-27.401208 -0.012,-7.684212 6.112858,-18.307358 13.116035,-22.74864 6.693784,-4.245073 9.786045,-4.767006 12.053802,-2.034527 1.12818,1.359375 0.9918,3.2631 -0.546008,7.621715 -3.648631,10.341319 0.541831,19.42363 10.762802,23.327055 5.13588892,1.961414 6.8355329,2.059511 11.4951459,0.663458 4.6257311,-1.385903 5.7792131,-1.327191 7.4875181,0.381114 2.650776,2.650778 0.476382,8.200984 -5.4659831,13.952078 -8.18002498,7.916728 -19.6329829,10.228367 -30.9107469,6.238955 z"
         id="path856" />
    </g>
  </g>
</svg>
